<svg width="21" height="20" viewBox="0 0 21 20" fill="none" xmlns="http://www.w3.org/2000/svg">
<path d="M0.75 13.6956C0.0325611 14.1098 -0.213252 15.0272 0.200962 15.7446C0.615175 16.4621 1.53256 16.7079 2.25 16.2937L0.75 13.6956ZM20.2694 5.38286C20.4838 4.58266 20.0089 3.76015 19.2087 3.54574L6.16874 0.051683C5.36854 -0.16273 4.54603 0.312144 4.33162 1.11234C4.11721 1.91254 4.59208 2.73505 5.39228 2.94946L16.9834 6.05529L13.8776 17.6464C13.6631 18.4466 14.138 19.2691 14.9382 19.4835C15.7384 19.6979 16.5609 19.2231 16.7753 18.4229L20.2694 5.38286ZM2.25 16.2937L19.5705 6.29367L18.0705 3.69559L0.75 13.6956L2.25 16.2937Z" fill="#B9FF66"/>
</svg>
