<svg width="23" height="23" viewBox="0 0 23 23" fill="none" xmlns="http://www.w3.org/2000/svg">
<path d="M1.5 9.5459C0.671573 9.5459 1.44847e-07 10.2175 0 11.0459C-1.44847e-07 11.8743 0.671573 12.5459 1.5 12.5459L1.5 9.5459ZM22.5607 12.1066C23.1464 11.5208 23.1464 10.571 22.5607 9.98524L13.0147 0.439299C12.4289 -0.146488 11.4792 -0.146488 10.8934 0.439298C10.3076 1.02509 10.3076 1.97483 10.8934 2.56062L19.3787 11.0459L10.8934 19.5312C10.3076 20.117 10.3076 21.0667 10.8934 21.6525C11.4792 22.2383 12.4289 22.2383 13.0147 21.6525L22.5607 12.1066ZM1.5 12.5459L21.5 12.5459L21.5 9.5459L1.5 9.5459L1.5 12.5459Z" fill="white"/>
</svg>
