<svg width="18" height="15" viewBox="0 0 18 15" fill="none" xmlns="http://www.w3.org/2000/svg">
<path d="M15.8203 3.55009C16.5097 3.03309 17.1301 2.41268 17.6126 1.68888C16.9922 1.96461 16.2684 2.17142 15.5446 2.24035C16.3029 1.79228 16.8543 1.10294 17.1301 0.241268C16.4407 0.654871 15.648 0.965074 14.8552 1.13741C14.1659 0.413603 13.2353 0 12.2013 0C10.2022 0 8.58226 1.61994 8.58226 3.61903C8.58226 3.89476 8.61673 4.1705 8.68566 4.44623C5.68704 4.2739 2.99862 2.82629 1.20634 0.654871C0.89614 1.17188 0.723805 1.79228 0.723805 2.48162C0.723805 3.72243 1.34421 4.82537 2.34375 5.48024C1.75781 5.44577 1.17188 5.3079 0.689338 5.03217V5.06664C0.689338 6.82445 1.93015 8.27206 3.58456 8.61673C3.30882 8.68566 2.96415 8.7546 2.65395 8.7546C2.41268 8.7546 2.20588 8.72013 1.96461 8.68566C2.41268 10.1333 3.75689 11.1673 5.34237 11.2017C4.10156 12.1668 2.55055 12.7528 0.861673 12.7528C0.551471 12.7528 0.275735 12.7183 0 12.6838C1.58548 13.7178 3.48116 14.3038 5.54917 14.3038C12.2013 14.3038 15.8203 8.82353 15.8203 4.03263C15.8203 3.86029 15.8203 3.72243 15.8203 3.55009Z" fill="black"/>
</svg>
